<svg xmlns="http://www.w3.org/2000/svg" xmlns:xlink="http://www.w3.org/1999/xlink" width="500" zoomAndPan="magnify" viewBox="0 0 375 374.999991" height="500" preserveAspectRatio="xMidYMid meet" version="1.0"><defs><clipPath id="0a1a5d1e64"><path d="M 176 152 L 312 152 L 312 333.394531 L 176 333.394531 Z M 176 152 " clip-rule="nonzero"/></clipPath><clipPath id="ca31b0c4e0"><path d="M 75 94.574219 L 134.164062 94.574219 L 134.164062 149.9375 L 75 149.9375 Z M 75 94.574219 " clip-rule="nonzero"/></clipPath><clipPath id="42a44f699e"><path d="M 75.824219 138.148438 C 107.476562 136.125 116.175781 135.300781 119.699219 136.125 C 121.125 136.5 121.726562 136.949219 122.550781 137.773438 C 123.523438 138.601562 124.125 139.875 124.800781 141.148438 C 125.476562 142.726562 126.300781 144.976562 126.523438 146.476562 C 126.601562 147.449219 126.824219 148.574219 126.300781 149.175781 C 125.476562 149.925781 122.851562 149.773438 120.976562 149.476562 C 118.800781 149.175781 116.175781 148.050781 113.851562 146.773438 C 111.375 145.425781 108.601562 143.398438 106.648438 141.300781 C 104.925781 139.425781 103.5 137.324219 102.75 135 C 102 132.675781 101.925781 129.523438 102.148438 127.425781 C 102.375 125.925781 102.824219 124.949219 103.5 123.601562 C 104.324219 121.875 105.898438 119.398438 107.175781 118.125 C 108.074219 117.300781 109.125 116.550781 109.949219 116.324219 C 110.550781 116.175781 111 116.175781 111.601562 116.476562 C 112.574219 117 114 118.800781 114.824219 120.675781 C 115.949219 123.226562 116.925781 128.023438 116.773438 130.800781 C 116.699219 132.898438 116.023438 134.851562 115.199219 136.125 C 114.523438 137.175781 113.773438 137.625 112.574219 138.226562 C 110.550781 139.351562 106.5 140.324219 103.425781 140.851562 C 100.5 141.300781 96.824219 141.601562 94.648438 141.226562 C 93.300781 141.074219 92.324219 140.699219 91.5 140.101562 C 90.601562 139.425781 89.925781 138.449219 89.476562 137.398438 C 89.023438 136.273438 88.726562 134.925781 88.800781 133.648438 C 88.800781 132.300781 89.175781 130.726562 89.773438 129.375 C 90.449219 128.101562 91.425781 126.824219 92.476562 125.925781 C 93.523438 125.023438 94.800781 124.351562 96 123.824219 C 97.273438 123.300781 98.550781 122.925781 99.976562 122.773438 C 101.851562 122.625 104.699219 122.476562 106.125 123.226562 C 107.101562 123.75 107.625 124.648438 108.148438 125.550781 C 108.75 126.675781 109.050781 128.101562 109.273438 129.375 C 109.5 130.648438 109.648438 131.925781 109.574219 133.199219 C 109.425781 134.476562 109.273438 135.75 108.675781 136.875 C 108 138.074219 106.949219 139.273438 105.75 140.175781 C 104.398438 141.226562 102.675781 141.976562 101.023438 142.5 C 99.449219 143.023438 97.800781 143.550781 96.148438 143.550781 C 94.574219 143.550781 92.773438 143.476562 91.425781 142.648438 C 89.851562 141.675781 88.5 139.648438 87.675781 137.625 C 86.625 135.148438 86.25 131.625 86.550781 128.398438 C 86.925781 124.875 88.199219 120.75 90 117.300781 C 91.949219 113.550781 95.023438 109.726562 98.101562 106.726562 C 101.101562 103.726562 104.925781 101.175781 108.375 99.300781 C 111.449219 97.574219 114.75 96.300781 117.675781 95.550781 C 120.148438 94.949219 122.625 94.351562 124.726562 94.726562 C 126.675781 95.023438 128.699219 95.773438 130.125 97.050781 C 131.699219 98.398438 132.824219 100.648438 133.425781 102.75 C 134.175781 105.148438 134.25 108.074219 133.949219 110.699219 C 133.726562 113.398438 132.976562 116.25 132 118.726562 C 131.101562 121.125 129.824219 123.449219 128.550781 125.398438 C 127.351562 127.199219 125.925781 128.851562 124.5 130.199219 C 123.300781 131.324219 122.324219 132.226562 120.824219 133.050781 C 119.175781 133.949219 116.023438 135.449219 114.75 135.148438 C 114.074219 135 113.550781 134.398438 113.398438 133.875 C 113.25 133.273438 113.550781 132 114 131.699219 C 114.375 131.324219 115.273438 131.324219 115.800781 131.625 C 116.550781 132 117.449219 133.273438 117.675781 134.324219 C 117.898438 135.523438 117.375 137.625 116.773438 138.601562 C 116.25 139.273438 115.425781 139.800781 114.675781 139.949219 C 114 140.175781 112.949219 140.101562 112.273438 139.726562 C 111.523438 139.199219 110.851562 138.074219 110.398438 137.023438 C 109.800781 135.75 109.351562 134.175781 109.273438 132.75 C 109.125 131.324219 109.125 129.75 109.648438 128.550781 C 110.101562 127.425781 111.074219 126.375 112.050781 125.699219 C 113.101562 125.023438 114.601562 124.648438 115.875 124.5 C 117.148438 124.425781 118.5 124.5 119.550781 124.949219 C 120.601562 125.324219 121.425781 125.925781 122.324219 126.898438 C 123.601562 128.324219 125.925781 132 126 133.199219 C 126 133.648438 125.773438 134.101562 125.550781 134.175781 C 125.324219 134.324219 124.800781 134.101562 124.726562 133.875 C 124.574219 133.648438 125.175781 132.75 125.398438 132.75 C 125.550781 132.75 126 133.800781 125.851562 134.023438 C 125.699219 134.175781 125.101562 134.25 124.726562 133.949219 C 123.75 133.351562 122.550781 129.375 121.425781 128.101562 C 120.675781 127.273438 120.074219 126.75 119.25 126.375 C 118.425781 126 117.300781 125.925781 116.25 125.925781 C 115.199219 126 114 126.300781 113.101562 126.824219 C 112.273438 127.273438 111.449219 128.023438 111.074219 128.925781 C 110.625 129.824219 110.550781 131.101562 110.699219 132.375 C 110.925781 134.175781 111.75 137.851562 112.875 138.449219 C 113.550781 138.824219 114.898438 138.375 115.5 137.851562 C 116.101562 137.25 116.398438 135.675781 116.175781 134.773438 C 116.023438 134.023438 114.898438 132.898438 114.75 132.976562 C 114.675781 132.976562 114.601562 133.574219 114.824219 133.726562 C 115.125 133.949219 116.324219 133.5 117.375 133.125 C 118.949219 132.375 121.648438 130.726562 123.375 129.226562 C 124.875 127.875 126.074219 126.375 127.199219 124.648438 C 128.476562 122.773438 129.675781 120.601562 130.574219 118.351562 C 131.476562 116.023438 132.226562 113.324219 132.523438 110.773438 C 132.75 108.300781 132.75 105.601562 132.148438 103.425781 C 131.625 101.476562 130.648438 99.523438 129.375 98.324219 C 128.175781 97.199219 126.523438 96.449219 124.800781 96.148438 C 122.851562 95.851562 120.523438 96.375 118.199219 96.976562 C 115.425781 97.648438 112.199219 98.925781 109.199219 100.5 C 105.898438 102.300781 102.226562 104.773438 99.300781 107.625 C 96.300781 110.550781 93.300781 114.148438 91.425781 117.75 C 89.699219 121.050781 88.425781 124.949219 88.050781 128.324219 C 87.75 131.25 88.050781 134.550781 88.875 136.875 C 89.550781 138.675781 90.675781 140.476562 91.949219 141.300781 C 93.074219 142.050781 94.5 142.125 95.851562 142.125 C 97.351562 142.050781 98.925781 141.601562 100.425781 141.148438 C 101.851562 140.625 103.5 140.023438 104.625 139.125 C 105.675781 138.375 106.648438 137.398438 107.25 136.425781 C 107.773438 135.449219 108 134.550781 108.074219 133.273438 C 108.148438 131.476562 107.550781 128.023438 106.949219 126.449219 C 106.574219 125.550781 106.351562 124.949219 105.601562 124.574219 C 104.476562 123.976562 102.148438 123.976562 100.351562 124.199219 C 98.25 124.574219 95.175781 125.699219 93.601562 126.824219 C 92.476562 127.726562 91.800781 128.699219 91.273438 129.824219 C 90.675781 130.949219 90.300781 132.300781 90.300781 133.5 C 90.226562 134.550781 90.449219 135.675781 90.75 136.574219 C 91.050781 137.398438 91.5 138.226562 92.101562 138.75 C 92.773438 139.273438 93.523438 139.574219 94.648438 139.726562 C 96.601562 140.101562 100.351562 139.800781 103.199219 139.351562 C 106.050781 138.898438 109.800781 138 111.675781 137.101562 C 112.726562 136.574219 113.324219 136.199219 113.925781 135.449219 C 114.675781 134.398438 115.125 132.601562 115.273438 130.949219 C 115.425781 129 115.050781 126.523438 114.449219 124.425781 C 113.773438 122.175781 112.351562 118.425781 111.226562 117.824219 C 110.699219 117.523438 110.101562 117.75 109.5 118.125 C 108.601562 118.574219 107.550781 119.851562 106.726562 121.125 C 105.601562 122.773438 104.101562 125.699219 103.648438 127.574219 C 103.351562 128.851562 103.273438 129.675781 103.425781 130.949219 C 103.648438 132.824219 104.25 135.523438 105.449219 137.476562 C 106.648438 139.574219 109.050781 141.523438 110.773438 142.949219 C 112.050781 144 113.023438 144.675781 114.523438 145.425781 C 116.398438 146.398438 119.175781 147.675781 121.125 147.976562 C 122.625 148.199219 124.648438 148.5 125.175781 147.75 C 125.925781 146.625 123.824219 141.898438 122.550781 140.175781 C 121.726562 138.898438 121.125 138.226562 119.550781 137.625 C 116.023438 136.425781 107.476562 137.625 100.800781 137.925781 C 93.074219 138.226562 78.300781 140.476562 75.898438 139.648438 C 75.375 139.5 75.148438 139.199219 75.148438 138.976562 C 75.074219 138.75 75.824219 138.148438 75.824219 138.148438 " clip-rule="nonzero"/></clipPath></defs><path fill="currentColor" d="M 196.453125 151.761719 C 196.007812 151.320312 194.648438 147.75 194.203125 146.859375 C 148.738281 53.714844 47.121094 56.816406 31.089844 98.714844 C 18.601562 130.800781 72.539062 207.019531 196.453125 151.761719 Z M 196.453125 151.761719 " fill-opacity="1" fill-rule="nonzero"/><path fill="currentColor" d="M 216.949219 143.289062 C 286.902344 112.09375 277.109375 58.179688 258.828125 51.039062 C 234.746094 41.671875 190.191406 77.796875 215.589844 140.613281 C 216.035156 141.0625 216.949219 142.84375 216.949219 143.289062 Z M 216.949219 143.289062 " fill-opacity="1" fill-rule="nonzero"/><path fill="currentColor" d="M 150.09375 227.25 C 137.164062 247.316406 127.351562 267.8125 120.660156 282.53125 C 120.238281 283.421875 120.238281 283.867188 119.792969 284.757812 C 117.5625 290.550781 115.3125 295.011719 113.992188 299.027344 C 112.210938 303.464844 114.441406 308.839844 119.34375 310.601562 C 122.890625 311.960938 127.796875 313.722656 133.617188 315.953125 C 134.488281 316.398438 134.953125 316.398438 135.84375 316.824219 C 151.453125 322.175781 172.839844 327.972656 196.03125 331.988281 C 182.203125 318.628906 171.054688 302.558594 163.027344 284.738281 C 154.980469 266.496094 150.539062 246.871094 150.09375 227.25 Z M 150.09375 227.25 " fill-opacity="1" fill-rule="nonzero"/><path fill="currentColor" d="M 345.726562 202.742188 C 335.042969 179.128906 315.867188 161.757812 293.144531 153.730469 C 290.914062 152.859375 288.683594 152.390625 286.007812 152.390625 C 274.414062 152.390625 262.839844 162.207031 261.949219 174.246094 C 260.164062 194.738281 264.179688 215.230469 273.078125 235.296875 C 281.976562 254.917969 294.460938 271.398438 310.089844 283.867188 C 314.101562 286.988281 319.457031 288.324219 324.339844 288.324219 C 333.722656 288.324219 342.621094 283.4375 346.191406 274.96875 C 355.980469 253.097656 356.449219 226.804688 345.726562 202.742188 Z M 345.726562 202.742188 " fill-opacity="1" fill-rule="nonzero"/><g clip-path="url(#0a1a5d1e64)"><path fill="currentColor" d="M 246.785156 247.765625 C 235.65625 222.792969 231.195312 197.390625 233.425781 172.417969 C 233.855469 165.308594 236.101562 158.613281 239.203125 152.816406 C 238.777344 152.816406 237.867188 153.242188 237.421875 153.242188 C 236.53125 153.691406 235.191406 153.691406 234.300781 154.136719 C 227.609375 155.917969 220.941406 159.039062 215.144531 162.160156 C 212.042969 163.964844 209.367188 165.75 206.246094 167.53125 C 191.101562 177.789062 178.617188 195.605469 176.832031 214.335938 C 175.027344 234.382812 178.617188 254.898438 187.070312 274.503906 C 195.539062 293.675781 208.007812 309.285156 223.171875 321.304688 C 232.535156 328.882812 249.015625 333.34375 262.859375 333.34375 C 278.003906 333.34375 294.035156 327.546875 306.96875 319.519531 C 306.96875 319.519531 307.414062 319.519531 307.414062 319.09375 C 308.289062 318.652344 309.199219 317.738281 310.089844 317.289062 C 310.515625 316.84375 310.960938 316.417969 311.40625 316.417969 C 304.273438 314.613281 298.050781 311.515625 292.699219 307.480469 C 273.097656 292.335938 257.507812 272.269531 246.785156 247.765625 Z M 246.785156 247.765625 " fill-opacity="1" fill-rule="nonzero"/></g><g clip-path="url(#ca31b0c4e0)"><g clip-path="url(#42a44f699e)"><path fill="currentColor" d="M 72.148438 91.726562 L 137.015625 91.726562 L 137.015625 152.550781 L 72.148438 152.550781 Z M 72.148438 91.726562 " fill-opacity="1" fill-rule="nonzero"/></g></g></svg>